<svg xmlns="http://www.w3.org/2000/svg" width="174.516" height="33.603" viewBox="0 0 174.516 33.603"><defs><style>.a{fill:#fff;}</style></defs><g transform="translate(41.581 3.609)"><path class="a" d="M684.9,116.819a6.26,6.26,0,0,0-5.212,2.488,7.021,7.021,0,0,0-1.54,4.471,7.124,7.124,0,0,0,1.82,4.78,6.273,6.273,0,0,0,5.033,2.1,7.2,7.2,0,0,0,2.606-.44,6.451,6.451,0,0,0,2.07-1.287,7.619,7.619,0,0,0,1.537-2.064l-1.138-.6a7.912,7.912,0,0,1-1.426,1.811,5.506,5.506,0,0,1-1.722.99,5.98,5.98,0,0,1-2.077.371,5.006,5.006,0,0,1-3.737-1.566,5.7,5.7,0,0,1-1.561-4l0-.2h12.176a7.074,7.074,0,0,0-1.448-4.314,6.481,6.481,0,0,0-5.376-2.55m-5.107,5.558a6.157,6.157,0,0,1,1.58-2.948,5.153,5.153,0,0,1,3.554-1.331,5.6,5.6,0,0,1,2.383.529,4.968,4.968,0,0,1,1.832,1.4,6.294,6.294,0,0,1,1.11,2.357l-10.458-.006Z" transform="translate(-620.817 -108.574)"/><path class="a" d="M790.523,117.336a6.284,6.284,0,0,0-2.749-.609,6.892,6.892,0,0,0-5.894,3.418,7.7,7.7,0,0,0-.909,3.671,6.6,6.6,0,0,0,.872,3.348,6.378,6.378,0,0,0,2.466,2.421,6.945,6.945,0,0,0,6.349.255,6.4,6.4,0,0,0,2.332-1.854l.344-.434v3.957a7.065,7.065,0,0,1-.543,3.221,4.275,4.275,0,0,1-1.83,1.749,6.461,6.461,0,0,1-3.1.684,6.586,6.586,0,0,1-3.115-.669,4.852,4.852,0,0,1-2.013-1.859h-1.474a7.292,7.292,0,0,0,1.432,2.094,6.1,6.1,0,0,0,2.188,1.279,9.1,9.1,0,0,0,3.065.481,7.622,7.622,0,0,0,3.967-.978,5.217,5.217,0,0,0,2.292-2.777,12.551,12.551,0,0,0,.487-4.1v-13.56h-1.355v2.683l-.34-.4a7.6,7.6,0,0,0-2.47-2.022m2.9,6.467a5.285,5.285,0,0,1-1.521,3.929,5.433,5.433,0,0,1-3.988,1.5H787.9a5.5,5.5,0,0,1-4-1.51,5.108,5.108,0,0,1-1.55-3.817,6.591,6.591,0,0,1,.748-3.093,5.374,5.374,0,0,1,2.06-2.047A5.7,5.7,0,0,1,788,118.02a5.493,5.493,0,0,1,2.744.723,5.1,5.1,0,0,1,1.977,1.969,6.768,6.768,0,0,1,.7,3.091" transform="translate(-708.311 -108.495)"/><path class="a" d="M888.666,76.4a.989.989,0,0,0-.752.328,1.193,1.193,0,0,0-.006,1.609,1,1,0,0,0,.759.32,1.01,1.01,0,0,0,.768-.32,1.184,1.184,0,0,0-.012-1.609,1.015,1.015,0,0,0-.756-.328" transform="translate(-799.042 -74.183)"/><path class="a" d="M891.873,119.418H890.53V132.3h1.343V119.418Z" transform="translate(-801.536 -110.785)"/><path class="a" d="M1040.076,120.948a4.786,4.786,0,0,0-7.344-.86l-.328.33,0-1.52h-1.324v12.889h1.327v-6.742a6.585,6.585,0,0,1,.9-3.6,2.976,2.976,0,0,1,2.635-1.459,3.208,3.208,0,0,1,3.16,1.9l.974-.942" transform="translate(-921.129 -110.218)"/><path class="a" d="M608.256,72.592h.372a5.066,5.066,0,0,0,3.8-1.407,5.329,5.329,0,0,0,1.376-3.891,5.5,5.5,0,0,0-1.606-4.344,7.213,7.213,0,0,0-4.9-1.433h-3.448V83.034h1.337V72.592h1.582l7.248,10.444h1.649l-7.417-10.444Zm-3.049-1.338V62.829h2.083a5.614,5.614,0,0,1,3.752,1.006,4.663,4.663,0,0,1,1.134,3.305,4,4,0,0,1-1.1,3.174,5.876,5.876,0,0,1-3.784.938Z" transform="translate(-557.605 -61.516)"/><path class="a" d="M919.79,130.023a4.258,4.258,0,0,1-2.994,1.095,5.61,5.61,0,0,1-2.311-.488,4.936,4.936,0,0,1-1.714-1.224l.915-.965a4.284,4.284,0,0,0,3.029,1.4,3.067,3.067,0,0,0,2.042-.713,2.182,2.182,0,0,0,.852-1.7,2.1,2.1,0,0,0-.565-1.439,8.562,8.562,0,0,0-2.414-1.479,7.291,7.291,0,0,1-2.6-1.8,3.258,3.258,0,0,1,.4-4.393,3.889,3.889,0,0,1,2.71-.96,5.786,5.786,0,0,1,3.75,1.637l-.924.885a4.525,4.525,0,0,0-2.919-1.272,2.521,2.521,0,0,0-1.689.605,1.841,1.841,0,0,0-.712,1.431,2.016,2.016,0,0,0,.581,1.365,7.669,7.669,0,0,0,2.3,1.466,8.227,8.227,0,0,1,2.763,1.873,3.188,3.188,0,0,1,.693,2,3.487,3.487,0,0,1-1.2,2.672" transform="translate(-820.462 -109.032)"/><path class="a" d="M981.9,83.24h-1.318v5.328h-2.3v1.306h2.3v11.7H981.9v-11.7h2.51V88.568H981.9V83.24Z" transform="translate(-876.204 -80.001)"/><path class="a" d="M294.944,63.181h8.348v-1.3h-9.659V83.395h1.311V71.7h8.036V70.382h-8.036v-7.2Z" transform="translate(-293.633 -61.824)"/><path class="a" d="M451.305,83.24h-1.32v5.328h-2.3v1.306h2.3v11.7h1.32v-11.7h2.509V88.568h-2.509V83.24Z" transform="translate(-424.718 -80.001)"/><path class="a" d="M490.134,119.028a7.056,7.056,0,0,0,.1,9.57,6.963,6.963,0,0,0,9.885,0,7.075,7.075,0,0,0,.1-9.583,6.875,6.875,0,0,0-10.093.013m10.531,4.783a5.694,5.694,0,0,1-.736,2.83,5.218,5.218,0,0,1-2,2.033,5.663,5.663,0,0,1-5.506,0,5.228,5.228,0,0,1-1.995-2.033,5.7,5.7,0,0,1-.736-2.83,5.557,5.557,0,0,1,1.615-4.016,5.328,5.328,0,0,1,7.732,0,5.553,5.553,0,0,1,1.622,4.016" transform="translate(-459.289 -108.57)"/><path class="a" d="M357.843,119.029a7.056,7.056,0,0,0,.1,9.57,6.962,6.962,0,0,0,9.884,0,7.076,7.076,0,0,0,.1-9.583,6.875,6.875,0,0,0-10.093.013m5.047-.895a5.235,5.235,0,0,1,3.862,1.662,5.56,5.56,0,0,1,1.622,4.016,5.694,5.694,0,0,1-.736,2.83,5.227,5.227,0,0,1-2,2.033,5.664,5.664,0,0,1-5.507,0,5.22,5.22,0,0,1-1.994-2.033,5.693,5.693,0,0,1-.736-2.83,5.559,5.559,0,0,1,1.614-4.016,5.227,5.227,0,0,1,3.87-1.662" transform="translate(-346.722 -108.572)"/><path class="a" d="M1094.992,119.028a7.053,7.053,0,0,0,.1,9.57,6.963,6.963,0,0,0,9.886,0,7.078,7.078,0,0,0,.1-9.583,6.874,6.874,0,0,0-10.092.013m10.529,4.783a5.664,5.664,0,0,1-.737,2.83,5.211,5.211,0,0,1-1.992,2.033,5.666,5.666,0,0,1-5.508,0,5.24,5.24,0,0,1-2-2.033,5.7,5.7,0,0,1-.737-2.83,5.569,5.569,0,0,1,1.617-4.016,5.327,5.327,0,0,1,7.731,0,5.547,5.547,0,0,1,1.62,4.016" transform="translate(-973.966 -108.57)"/></g><path class="a" d="M24.912,39.968h7.232a1.33,1.33,0,1,0,0-2.66H24.912a1.33,1.33,0,0,0,0,2.66Z" transform="translate(-22.264 -37.308)"/><path class="a" d="M50.1,62.031h0V59.956a2.071,2.071,0,0,0-2.064-1.967H34.305l-11.965,0v0H16.807a2.072,2.072,0,0,0-2.065,1.969V73.2h0v5.721a2.071,2.071,0,0,0,2.065,1.966H48.038A2.07,2.07,0,0,0,50.1,78.919l0-5.736,0-11.152ZM30,62.027v.455H23.471v-.457h0V59.943H30v2.084Zm15.55,13.1a7.672,7.672,0,0,1-11.205.51l-.035-.033a7.7,7.7,0,0,1-1.646-2.4c-.023-.052-.044-.1-.065-.157a7.674,7.674,0,0,1,1.724-8.364l.021-.021a7.677,7.677,0,0,1,12.415,8.532,8.115,8.115,0,0,1-.409.809,7.732,7.732,0,0,1-.8,1.129Z" transform="translate(-14.742 -54.906)"/><path class="a" d="M152.627,104.8a5.178,5.178,0,0,0-4.292,8.073c.037.054.079.1.117.157a5.165,5.165,0,0,0,8.349,0c.038-.053.081-.1.117-.157a5.178,5.178,0,0,0-4.292-8.073Z" transform="translate(-127.664 -94.734)"/></svg>